HIERARCHY
ROOT Root
{
  OFFSET 0.0 0.0 0.0
  CHANNELS 6 Xposition Yposition Zposition Zrotation Yrotation Xrotation
  JOINT Hips
  {
    OFFSET 0.0 100.0 0.0
    CHANNELS 6 Xposition Yposition Zposition Zrotation Yrotation Xrotation
    JOINT Spine1
    {
      OFFSET 5.003913 -0.037094 -0.013727
      CHANNELS 3 Zrotation Yrotation Xrotation
      JOINT Spine2
      {
        OFFSET 7.125363 -1e-06 0.0
        CHANNELS 3 Zrotation Yrotation Xrotation
        JOINT Chest
        {
          OFFSET 7.594027 1e-06 0.0
          CHANNELS 3 Zrotation Yrotation Xrotation
          JOINT Neck1
          {
            OFFSET 26.313086 -0.460272 -0.181672
            CHANNELS 3 Zrotation Yrotation Xrotation
            JOINT Neck2
            {
              OFFSET 8.045911 0.0 0.0
              CHANNELS 3 Zrotation Yrotation Xrotation
              JOINT Head
              {
                OFFSET 6.432774 0.0 0.0
                CHANNELS 3 Zrotation Yrotation Xrotation
                JOINT HeadEnd
                {
                  OFFSET 16.169773 0.06451 0.00362
                  CHANNELS 3 Zrotation Yrotation Xrotation
                }
                JOINT Jaw
                {
                  OFFSET 0.108741 3.12938 0.002639
                  CHANNELS 3 Zrotation Yrotation Xrotation
                }
                JOINT LeftEye
                {
                  OFFSET 4.45173 8.166359 3.206392
                  CHANNELS 3 Zrotation Yrotation Xrotation
                }
                JOINT RightEye
                {
                  OFFSET 4.436895 8.135758 -3.222429
                  CHANNELS 3 Zrotation Yrotation Xrotation
                }
              }
            }
          }
          JOINT LeftShoulder
          {
            OFFSET 23.218927 5.195579 1.621656
            CHANNELS 3 Zrotation Yrotation Xrotation
            JOINT LeftArm
            {
              OFFSET 15.902118 2e-06 -2e-06
              CHANNELS 3 Zrotation Yrotation Xrotation
              JOINT LeftForeArm
              {
                OFFSET 28.739307 0.0 -1e-06
                CHANNELS 3 Zrotation Yrotation Xrotation
                JOINT LeftHand
                {
                  OFFSET 27.093981 -4e-06 0.0
                  CHANNELS 3 Zrotation Yrotation Xrotation
                  JOINT LeftHandThumb1
                  {
                    OFFSET 2.276781 3.380274 0.83384
                    CHANNELS 3 Zrotation Yrotation Xrotation
                    JOINT LeftHandThumb2
                    {
                      OFFSET 4.705309 -1e-06 -1e-06
                      CHANNELS 3 Zrotation Yrotation Xrotation
                      JOINT LeftHandThumb3
                      {
                        OFFSET 2.798515 0.0 3e-06
                        CHANNELS 3 Zrotation Yrotation Xrotation
                        JOINT LeftHandThumbEnd
                        {
                          OFFSET 3.180793 4e-06 -4e-06
                          CHANNELS 3 Zrotation Yrotation Xrotation
                        }
                      }
                    }
                  }
                  JOINT LeftHandIndex1
                  {
                    OFFSET 3.247786 2.352677 0.137192
                    CHANNELS 3 Zrotation Yrotation Xrotation
                    JOINT LeftHandIndex2
                    {
                      OFFSET 6.367095 1e-06 0.0
                      CHANNELS 3 Zrotation Yrotation Xrotation
                      JOINT LeftHandIndex3
                      {
                        OFFSET 3.662364 0.0 0.0
                        CHANNELS 3 Zrotation Yrotation Xrotation
                        JOINT LeftHandIndex4
                        {
                          OFFSET 2.329242 4e-06 -4e-06
                          CHANNELS 3 Zrotation Yrotation Xrotation
                          JOINT LeftHandIndexEnd
                          {
                            OFFSET 2.767823 1e-06 0.0
                            CHANNELS 3 Zrotation Yrotation Xrotation
                          }
                        }
                      }
                    }
                  }
                  JOINT LeftHandMiddle1
                  {
                    OFFSET 3.163612 0.945023 -0.406112
                    CHANNELS 3 Zrotation Yrotation Xrotation
                    JOINT LeftHandMiddle2
                    {
                      OFFSET 6.276789 3e-06 0.0
                      CHANNELS 3 Zrotation Yrotation Xrotation
                      JOINT LeftHandMiddle3
                      {
                        OFFSET 4.35652 -1e-06 4e-06
                        CHANNELS 3 Zrotation Yrotation Xrotation
                        JOINT LeftHandMiddle4
                        {
                          OFFSET 2.996877 0.0 8e-06
                          CHANNELS 3 Zrotation Yrotation Xrotation
                          JOINT LeftHandMiddleEnd
                          {
                            OFFSET 2.323256 3e-06 -4e-06
                            CHANNELS 3 Zrotation Yrotation Xrotation
                          }
                        }
                      }
                    }
                  }
                  JOINT LeftHandRing1
                  {
                    OFFSET 2.882606 -0.309162 0.107445
                    CHANNELS 3 Zrotation Yrotation Xrotation
                    JOINT LeftHandRing2
                    {
                      OFFSET 6.033198 0.0 4e-06
                      CHANNELS 3 Zrotation Yrotation Xrotation
                      JOINT LeftHandRing3
                      {
                        OFFSET 4.350578 3e-06 0.0
                        CHANNELS 3 Zrotation Yrotation Xrotation
                        JOINT LeftHandRing4
                        {
                          OFFSET 2.651321 2e-06 -7e-06
                          CHANNELS 3 Zrotation Yrotation Xrotation
                          JOINT LeftHandRingEnd
                          {
                            OFFSET 1.937663 1e-06 -4e-06
                            CHANNELS 3 Zrotation Yrotation Xrotation
                          }
                        }
                      }
                    }
                  }
                  JOINT LeftHandPinky1
                  {
                    OFFSET 2.865315 -1.525436 0.575687
                    CHANNELS 3 Zrotation Yrotation Xrotation
                    JOINT LeftHandPinky2
                    {
                      OFFSET 5.54936 1e-06 -8e-06
                      CHANNELS 3 Zrotation Yrotation Xrotation
                      JOINT LeftHandPinky3
                      {
                        OFFSET 3.070974 0.0 -4e-06
                        CHANNELS 3 Zrotation Yrotation Xrotation
                        JOINT LeftHandPinky4
                        {
                          OFFSET 1.549672 1e-06 0.0
                          CHANNELS 3 Zrotation Yrotation Xrotation
                          JOINT LeftHandPinkyEnd
                          {
                            OFFSET 1.952123 0.0 0.0
                            CHANNELS 3 Zrotation Yrotation Xrotation
                          }
                        }
                      }
                    }
                  }
                }
              }
            }
          }
          JOINT RightShoulder
          {
            OFFSET 23.161716 5.296122 -1.380114
            CHANNELS 3 Zrotation Yrotation Xrotation
            JOINT RightArm
            {
              OFFSET -16.027195 -2e-06 1.1e-05
              CHANNELS 3 Zrotation Yrotation Xrotation
              JOINT RightForeArm
              {
                OFFSET -28.736639 4e-06 2e-06
                CHANNELS 3 Zrotation Yrotation Xrotation
                JOINT RightHand
                {
                  OFFSET -27.133619 6e-06 0.0
                  CHANNELS 3 Zrotation Yrotation Xrotation
                  JOINT RightHandThumb1
                  {
                    OFFSET -2.274328 -3.351035 -0.83067
                    CHANNELS 3 Zrotation Yrotation Xrotation
                    JOINT RightHandThumb2
                    {
                      OFFSET -4.703594 -3e-06 2e-06
                      CHANNELS 3 Zrotation Yrotation Xrotation
                      JOINT RightHandThumb3
                      {
                        OFFSET -2.794935 -4e-06 -3e-06
                        CHANNELS 3 Zrotation Yrotation Xrotation
                        JOINT RightHandThumbEnd
                        {
                          OFFSET -3.183852 4e-06 1e-06
                          CHANNELS 3 Zrotation Yrotation Xrotation
                        }
                      }
                    }
                  }
                  JOINT RightHandIndex1
                  {
                    OFFSET -3.253496 -2.33755 -0.127667
                    CHANNELS 3 Zrotation Yrotation Xrotation
                    JOINT RightHandIndex2
                    {
                      OFFSET -6.344434 0.0 0.0
                      CHANNELS 3 Zrotation Yrotation Xrotation
                      JOINT RightHandIndex3
                      {
                        OFFSET -3.654871 0.0 -8e-06
                        CHANNELS 3 Zrotation Yrotation Xrotation
                        JOINT RightHandIndex4
                        {
                          OFFSET -2.327586 -1e-06 0.0
                          CHANNELS 3 Zrotation Yrotation Xrotation
                          JOINT RightHandIndexEnd
                          {
                            OFFSET -2.770001 3e-06 8e-06
                            CHANNELS 3 Zrotation Yrotation Xrotation
                          }
                        }
                      }
                    }
                  }
                  JOINT RightHandMiddle1
                  {
                    OFFSET -3.168223 -0.944764 0.411762
                    CHANNELS 3 Zrotation Yrotation Xrotation
                    JOINT RightHandMiddle2
                    {
                      OFFSET -6.266691 -1e-06 -4e-06
                      CHANNELS 3 Zrotation Yrotation Xrotation
                      JOINT RightHandMiddle3
                      {
                        OFFSET -4.348901 0.0 0.0
                        CHANNELS 3 Zrotation Yrotation Xrotation
                        JOINT RightHandMiddle4
                        {
                          OFFSET -3.00024 2e-06 -4e-06
                          CHANNELS 3 Zrotation Yrotation Xrotation
                          JOINT RightHandMiddleEnd
                          {
                            OFFSET -2.321477 -4e-06 -4e-06
                            CHANNELS 3 Zrotation Yrotation Xrotation
                          }
                        }
                      }
                    }
                  }
                  JOINT RightHandRing1
                  {
                    OFFSET -2.885654 0.293261 -0.119232
                    CHANNELS 3 Zrotation Yrotation Xrotation
                    JOINT RightHandRing2
                    {
                      OFFSET -6.032835 -1e-06 -4e-06
                      CHANNELS 3 Zrotation Yrotation Xrotation
                      JOINT RightHandRing3
                      {
                        OFFSET -4.33881 0.0 -4e-06
                        CHANNELS 3 Zrotation Yrotation Xrotation
                        JOINT RightHandRing4
                        {
                          OFFSET -2.654903 -4e-06 -4e-06
                          CHANNELS 3 Zrotation Yrotation Xrotation
                          JOINT RightHandRingEnd
                          {
                            OFFSET -1.935122 0.0 4e-06
                            CHANNELS 3 Zrotation Yrotation Xrotation
                          }
                        }
                      }
                    }
                  }
                  JOINT RightHandPinky1
                  {
                    OFFSET -2.866241 1.503904 -0.60527
                    CHANNELS 3 Zrotation Yrotation Xrotation
                    JOINT RightHandPinky2
                    {
                      OFFSET -5.553177 -2e-06 0.0
                      CHANNELS 3 Zrotation Yrotation Xrotation
                      JOINT RightHandPinky3
                      {
                        OFFSET -3.062664 -1e-06 -4e-06
                        CHANNELS 3 Zrotation Yrotation Xrotation
                        JOINT RightHandPinky4
                        {
                          OFFSET -1.546529 2e-06 4e-06
                          CHANNELS 3 Zrotation Yrotation Xrotation
                          JOINT RightHandPinkyEnd
                          {
                            OFFSET -1.952341 0.0 -4e-06
                            CHANNELS 3 Zrotation Yrotation Xrotation
                          }
                        }
                      }
                    }
                  }
                }
              }
            }
          }
        }
      }
    }
    JOINT LeftLeg
    {
      OFFSET -8.443107 2.567604 10.043214
      CHANNELS 3 Zrotation Yrotation Xrotation
      JOINT LeftShin
      {
        OFFSET 43.229198 1e-06 -1e-06
        CHANNELS 3 Zrotation Yrotation Xrotation
        JOINT LeftFoot
        {
          OFFSET 42.298611 1e-06 1e-06
          CHANNELS 3 Zrotation Yrotation Xrotation
          JOINT LeftToeBase
          {
            OFFSET 14.165858 1e-06 0.0
            CHANNELS 3 Zrotation Yrotation Xrotation
            JOINT LeftToeEnd
            {
              OFFSET 6.7141 -0.234461 0.0
              CHANNELS 3 Zrotation Yrotation Xrotation
            }
          }
        }
      }
    }
    JOINT RightLeg
    {
      OFFSET -8.303923 2.592729 -10.047278
      CHANNELS 3 Zrotation Yrotation Xrotation
      JOINT RightShin
      {
        OFFSET -43.369682 0.0 1e-06
        CHANNELS 3 Zrotation Yrotation Xrotation
        JOINT RightFoot
        {
          OFFSET -42.260784 4e-06 2e-06
          CHANNELS 3 Zrotation Yrotation Xrotation
          JOINT RightToeBase
          {
            OFFSET -14.222245 -2e-06 -1e-06
            CHANNELS 3 Zrotation Yrotation Xrotation
            JOINT RightToeEnd
            {
              OFFSET -6.660062 0.232574 -2e-06
              CHANNELS 3 Zrotation Yrotation Xrotation
            }
          }
        }
      }
    }
  }
}
MOTION
Frames: 4
Frame Time: 0.03333333333333333
0.0 0.0 0.0 0.0 -0.0 0.0 -0.570305 46.933495 2.798572 88.163963 -56.082249 90.790535 10.605521 0.217392 -0.661022 -4.477304 -0.383345 -1.19102 21.808527 2.801893 -2.229119 13.612486 -2.470676 2.509247 -2.833125 -0.238642 0.900423 -37.265785 0.688317 1.000577 4e-06 0.0 0.0 -0.102046 0.051522 -0.043475 0.158802 0.019469 -0.005491 0.191298 0.081549 -0.077316 -29.101633 -67.35141 30.889708 80.605965 -14.706253 -31.3675 16.133339 -1.173816 0.296024 6.39523 68.092484 4.426346 17.636627 -26.322733 52.411201 -19.466661 -14.395598 29.410395 -1e-06 -8.774822 -2e-06 15.949996 -17.778929 6.795327 -0.609777 -1.795653 -3.889329 -4.807088 -11.046812 -2.937851 5e-06 -20.976021 1e-06 -5.01997 -25.03356 -4.03188 7e-06 -0.0 2e-06 -10.634535 -5.68697 -3.565587 10.573275 -17.922951 -3.113902 3e-06 -13.821211 1e-06 -0.501776 -31.181505 -4.027016 -10.626933 -59.834049 7.739694 -13.982715 -7.150198 -2.875042 13.772729 -8.40149 -3.218241 0.347735 -34.211555 0.771654 -0.963028 -17.73337 2.621019 0.0 0.0 1e-06 -17.34642 -20.095217 -4.201783 21.757557 -1.638377 3.866428 2e-06 -6.338824 1e-06 -1.69759 -22.591742 -6.194005 0.0 -5e-06 -1e-06 171.780731 -71.388489 10.501287 91.741302 -9.007944 -27.53701 10.100039 -0.463758 0.154487 -24.191895 75.874702 -31.340532 22.18211 -20.375891 49.933319 -16.701817 -16.74353 28.476534 -3e-06 -12.690601 0.0 16.447248 -18.086485 2.664155 -0.105919 -1.513857 -4.275882 -5.039041 -5.612868 -2.953556 4e-06 -11.020519 -4e-06 -6.111297 -15.895328 -3.840472 -1e-06 -0.0 1e-06 -10.283369 -5.680288 -4.341838 11.028295 -11.302403 -2.372634 -1.384268 -14.238579 -6.320118 -0.625436 -26.924185 -3.827603 -3.837815 -48.807621 -4.7362 -13.708524 -7.363475 -3.720939 18.14115 -14.052736 -3.242676 5e-06 -18.787268 -1e-06 -0.42971 -8.456039 2.555502 -0.0 -1e-06 0.0 -15.923534 -20.094479 -5.473584 30.41921 -7.190828 1.735926 3e-06 -8.162921 -1e-06 -1.861901 -22.861464 -6.16794 0.0 -3e-06 -0.0 106.955795 -10.98483 9.475239 126.923477 -0.28506 0.366581 -80.756378 17.972315 6.527107 -37.135239 1.777416 1.22275 -0.999999 -0.0 -0.0 -67.611717 -6.507484 4.553887 124.412895 -0.075438 0.227871 -86.934822 12.834936 8.66695 -44.020195 0.977245 1.072573 -1.000002 -1e-06 -0.0 
0.0 0.0 0.0 0.0 -0.0 0.0 -0.516063 46.929478 2.883869 87.677734 -56.128803 91.119431 10.572007 0.314131 -0.661591 -4.544851 -0.347287 -1.130882 21.824078 2.815603 -2.079988 13.611785 -2.489153 2.390681 -2.825957 -0.245909 0.820611 -37.131855 0.776033 0.917107 9e-06 -0.0 -0.0 -0.109864 0.036936 -0.041531 0.196927 -0.003998 0.006126 0.221435 0.077684 -0.087322 -29.141966 -67.462807 31.193064 80.824959 -14.412874 -31.530678 15.804189 -1.199672 0.268646 7.638774 68.048958 5.537195 17.636633 -26.322733 52.411209 -19.466654 -14.395594 29.410385 0.0 -8.774822 -2e-06 15.947028 -17.827122 6.815832 -0.609775 -1.795653 -3.889328 -4.807091 -11.046814 -2.937851 4e-06 -20.976019 2e-06 -5.019971 -25.03356 -4.031883 6e-06 -0.0 0.0 -10.634536 -5.686972 -3.565588 10.573272 -17.922953 -3.1139 2e-06 -13.821211 1e-06 -0.501778 -31.181511 -4.027019 -10.501649 -59.971191 7.691407 -13.982714 -7.150198 -2.875043 13.77273 -8.401493 -3.218242 0.347732 -34.211555 0.771655 -0.963029 -17.73337 2.621019 0.0 -0.0 0.0 -17.346422 -20.095221 -4.201784 21.757561 -1.638375 3.86643 1e-06 -6.338828 1e-06 -1.697591 -22.591751 -6.194007 0.0 -4e-06 -2e-06 171.653809 -71.395927 10.807789 91.792526 -8.964672 -27.78738 9.961802 -0.453374 0.160231 -22.986092 75.75145 -30.52998 22.182116 -20.375898 49.933319 -16.701811 -16.743528 28.476528 -1e-06 -12.690601 -1e-06 16.419336 -18.055162 2.69132 -0.10592 -1.513856 -4.275882 -5.03904 -5.612872 -2.953556 3e-06 -11.02052 -2e-06 -6.111298 -15.89533 -3.840472 -1e-06 -1e-06 0.0 -10.283369 -5.680288 -4.341839 11.028294 -11.302402 -2.372632 -1.38427 -14.238579 -6.320118 -0.625438 -26.924183 -3.827603 -3.798542 -48.883354 -4.660193 -13.708526 -7.363475 -3.720939 18.141148 -14.052736 -3.242673 4e-06 -18.78727 -1e-06 -0.429711 -8.456041 2.555505 -0.0 0.0 -2e-06 -15.923532 -20.094482 -5.473584 30.41921 -7.190824 1.735927 2e-06 -8.162926 -2e-06 -1.861903 -22.861469 -6.167939 -1e-06 -3e-06 -0.0 106.920006 -11.171344 9.613677 126.863785 -0.324263 0.364221 -80.398735 18.015318 6.77099 -37.04929 1.786617 1.18494 -0.999998 -0.0 0.0 -67.521553 -6.287836 4.327053 124.201012 -0.085137 0.208879 -86.482117 12.785645 8.722906 -43.590977 0.974996 1.080291 -1.000002 -0.0 -0.0 
0.0 0.0 0.0 0.0 -0.0 0.0 -0.463428 46.933876 3.055218 87.347389 -56.140873 91.363518 10.4995 0.369377 -0.641517 -4.603542 -0.304569 -1.069684 21.878778 2.827216 -1.983248 13.643945 -2.503889 2.282987 -2.829561 -0.299946 0.721288 -37.07114 0.780712 0.835188 7e-06 0.0 0.0 -0.109349 0.018626 -0.033591 0.184522 -0.027504 0.012336 0.20661 0.06544 -0.080478 -28.830669 -67.510773 31.09359 80.922318 -14.234987 -31.358618 15.657724 -1.198202 0.265244 7.761784 67.959763 5.551451 17.636625 -26.322729 52.411182 -19.466658 -14.395594 29.410378 -0.0 -8.774821 -2e-06 15.927807 -17.836966 6.81378 -0.609776 -1.795652 -3.889327 -4.807089 -11.046813 -2.937849 3e-06 -20.976013 2e-06 -5.019971 -25.033552 -4.031879 6e-06 -1e-06 1e-06 -10.63453 -5.686969 -3.565587 10.573271 -17.922949 -3.113899 2e-06 -13.821205 1e-06 -0.501779 -31.181494 -4.027012 -10.413648 -60.037178 7.656886 -13.982711 -7.150196 -2.875042 13.772727 -8.401491 -3.21824 0.347731 -34.211544 0.771656 -0.96303 -17.733366 2.621019 0.0 -0.0 -0.0 -17.346413 -20.095213 -4.201781 21.757553 -1.638374 3.866428 1e-06 -6.338823 1e-06 -1.697589 -22.591738 -6.194003 0.0 -5e-06 -1e-06 171.981216 -71.406624 10.675944 91.632088 -8.961105 -28.040293 9.883394 -0.48252 0.160438 -21.837473 75.764526 -29.521877 22.182117 -20.375887 49.933308 -16.701809 -16.743526 28.476524 -1e-06 -12.6906 -1e-06 16.396494 -17.983917 2.704533 -0.10592 -1.513855 -4.275881 -5.039038 -5.612869 -2.953554 3e-06 -11.02052 -3e-06 -6.111297 -15.895329 -3.840471 -0.0 -0.0 2e-06 -10.283371 -5.680287 -4.341837 11.028293 -11.302401 -2.372632 -1.38427 -14.238578 -6.320117 -0.625439 -26.924183 -3.827603 -3.746922 -48.876499 -4.587485 -13.708525 -7.363475 -3.720938 18.141148 -14.052734 -3.242672 4e-06 -18.787266 -1e-06 -0.429711 -8.456041 2.555502 1e-06 -0.0 -1e-06 -15.923532 -20.094477 -5.473583 30.419207 -7.190826 1.735926 3e-06 -8.162924 -3e-06 -1.861903 -22.861464 -6.167939 -0.0 -3e-06 -0.0 107.094398 -11.322048 9.635226 126.72094 -0.347826 0.371823 -80.374283 17.886984 6.909804 -37.210148 1.789422 1.174411 -0.999997 0.0 -0.0 -67.277054 -6.101977 4.197728 123.896599 -0.089585 0.216271 -86.039017 12.736231 8.726132 -43.431145 0.969725 1.086746 -1.000002 0.0 -0.0 
0.0 0.0 0.0 0.0 -0.0 0.0 -0.436106 46.944485 3.160808 87.055428 -56.190308 91.605461 10.41626 0.404994 -0.620323 -4.654943 -0.275928 -1.024228 21.900711 2.893828 -1.921376 13.651988 -2.558728 2.193179 -2.823037 -0.373535 0.638989 -37.103081 0.752482 0.762318 7e-06 0.0 0.0 -0.106777 0.003452 -0.025992 0.158947 -0.044611 0.014395 0.180568 0.052205 -0.06882 -28.581142 -67.548866 31.014391 80.971169 -14.137698 -31.198263 15.639632 -1.192837 0.262309 7.822155 68.009674 5.764231 17.636631 -26.322721 52.411201 -19.466658 -14.395597 29.410393 -1e-06 -8.774822 -2e-06 15.910661 -17.829138 6.800801 -0.609777 -1.795652 -3.889328 -4.807089 -11.046806 -2.937851 5e-06 -20.976009 0.0 -5.019968 -25.033552 -4.031886 6e-06 -0.0 1e-06 -10.634534 -5.686969 -3.565589 10.573274 -17.922947 -3.113899 3e-06 -13.821206 -0.0 -0.501775 -31.181494 -4.027019 -10.406263 -60.065372 7.626754 -13.982714 -7.150195 -2.875044 13.772728 -8.401489 -3.21824 0.347734 -34.211536 0.771654 -0.963028 -17.733362 2.621019 0.0 -0.0 -0.0 -17.346416 -20.095209 -4.201786 21.757557 -1.638372 3.866431 1e-06 -6.338822 0.0 -1.697588 -22.591732 -6.194008 -0.0 -4e-06 -1e-06 172.34758 -71.369247 10.399625 91.439201 -9.096405 -28.243525 9.922316 -0.485067 0.159655 -21.035339 75.772995 -28.787222 22.182116 -20.375887 49.933315 -16.701815 -16.743528 28.476528 -3e-06 -12.690603 -1e-06 16.403845 -17.930595 2.703767 -0.105918 -1.513856 -4.275882 -5.039039 -5.61287 -2.953556 6e-06 -11.02052 -3e-06 -6.111297 -15.895332 -3.840472 0.0 1e-06 1e-06 -10.283369 -5.680285 -4.341838 11.028296 -11.302404 -2.372633 -1.384267 -14.238577 -6.320119 -0.625434 -26.924183 -3.827602 -3.704177 -48.890251 -4.517343 -13.708527 -7.363474 -3.720938 18.141153 -14.052739 -3.242676 6e-06 -18.787266 -1e-06 -0.429709 -8.456041 2.555502 -0.0 -0.0 1e-06 -15.923534 -20.094479 -5.473587 30.419214 -7.190827 1.735924 4e-06 -8.162925 -2e-06 -1.861901 -22.861467 -6.16794 -1e-06 -3e-06 -1e-06 107.130424 -11.415528 9.726861 126.652428 -0.360817 0.376444 -80.5065 17.792669 7.001682 -37.63567 1.790512 1.174194 -0.999999 0.0 -0.0 -67.164185 -5.896377 4.133419 123.690369 -0.060502 0.219239 -85.729607 12.600492 8.659895 -43.479599 0.966784 1.093918 -1.000004 -0.0 -0.0 
